<svg width="120px" height="120px" viewBox="0 0 120 120">
<path fill="#F8485E" d="M93,18h-3h-9v-3.5c0-2.5-2-4.5-4.5-4.5h-3.8C71.3,4.3,66.1,0,60,0c-6.1,0-11.3,4.3-12.7,10h-3.8
C41,10,39,12,39,14.5V18h-9h-3c-4.4,0-8,3.6-8,8v86c0,4.4,3.6,8,8,8h66c4.4,0,8-3.6,8-8V26C101,21.6,97.4,18,93,18z M42,14.5
c0-0.8,0.7-1.5,1.5-1.5H50c0-5.5,4.5-10,10-10c5.5,0,10,4.5,10,10h6.5c0.8,0,1.5,0.7,1.5,1.5v9c0,0.8-0.7,1.5-1.5,1.5h-33
c-0.8,0-1.5-0.7-1.5-1.5V14.5z M30,21h9v2.5c0,2.5,2,4.5,4.5,4.5h33c2.5,0,4.5-2,4.5-4.5V21h9v86H30V21z M98,112c0,2.8-2.2,5-5,5H27
c-2.8,0-5-2.2-5-5V26c0-2.8,2.2-5,5-5v86c0,1.7,1.3,3,3,3h60c1.7,0,3-1.3,3-3V21c2.8,0,5,2.2,5,5V112z"/>
<path fill="#F8485E" d="M60,9c2.2,0,4,1.8,4,4s-1.8,4-4,4s-4-1.8-4-4S57.8,9,60,9 M60,6c-3.9,0-7,3.1-7,7s3.1,7,7,7c3.9,0,7-3.1,7-7
S63.9,6,60,6L60,6z"/>
<path fill="#F8485E" d="M82,92.5c0,0.8-0.7,1.5-1.5,1.5h-41c-0.8,0-1.5-0.7-1.5-1.5l0,0c0-0.8,0.7-1.5,1.5-1.5h41
C81.3,91,82,91.7,82,92.5L82,92.5z"/>
<path fill="#F8485E" d="M82,79.5c0,0.8-0.7,1.5-1.5,1.5h-41c-0.8,0-1.5-0.7-1.5-1.5l0,0c0-0.8,0.7-1.5,1.5-1.5h41
C81.3,78,82,78.7,82,79.5L82,79.5z"/>
<path fill="#F8485E" d="M58.1,60.7c-0.4,0-0.8-0.2-1.1-0.5L46.5,48.9c-0.6-0.6-0.5-1.6,0.1-2.1c0.6-0.6,1.6-0.5,2.1,0.1l9.4,10
l14.3-18.5c0.5-0.7,1.4-0.8,2.1-0.3c0.7,0.5,0.8,1.4,0.3,2.1L59.3,60.1C59,60.5,58.6,60.7,58.1,60.7C58.2,60.7,58.1,60.7,58.1,60.7z
"/>
</svg>
