<svg width="120px" height="120px" viewBox="0 0 120 120">
<path fill="#F8485E" d="M60.2,120c-33,0-59.8-26.8-59.8-59.8c0-33,26.8-59.8,59.8-59.8S120,27.3,120,60.2
C120,93.2,93.2,120,60.2,120z M60.2,3.5C28.9,3.5,3.4,28.9,3.4,60.2c0,31.3,25.5,56.8,56.8,56.8S117,91.5,117,60.2
C117,28.9,91.5,3.5,60.2,3.5z"/>
<path fill="#F8485E" d="M24.4,107.7c-0.6,0-1.2-0.4-1.4-1c-1.9-6.1-4.9-16.6-2.7-19.1c0.6-0.7,1.6-1.4,2.5-2.1
c0.9-0.7,2.7-2,2.9-2.6c-0.1-0.1-0.2-0.2-0.5-0.3c-0.5-0.3-1.6-0.4-2.6-0.4c-2.1-0.1-4.6-0.3-6.2-2.3c-1.2-1.6-1.5-4-0.8-7.4
c0.2-1.1,0.1-3-0.1-4.8c-0.3-3.5-0.5-7.1,1.3-9.1c0.8-0.9,2-1.3,3.3-1.2c2.4,0.1,2.8,3.4,3.5,10.4c0.2,2.2,0.6,5.5,0.9,6.5
c0.8,0,2.7-0.5,4.6-1.7c1.2-0.8,1.7-1.4,1.8-1.7c-0.9-1.8-2.2-2.3-3.5-2.8l-0.4-0.2c-1.3-0.6-1.9-2.3-1.6-5.3
c0.1-1.5,0.8-6.3,3.6-6.8c2.6-0.5,4.1,2.8,5.4,5.7c0.4,0.8,0.8,1.9,1.1,2.1c0.4,0.3,2.1,0.6,3.1,0.8c0.8,0.1,1.6,0.3,2.3,0.4
c2.1,0.5,3.2,3.1,3.5,8.4c0,0.3,0,0.8,0,1.5c0.1,4.5,0.3,7.1,0.8,7.9c0.7,0.4,1.3,0.9,1.8,1.5c1,1,1.9,1.9,3.4,1.8
c0.3-0.9,0.3-3.4,0.3-4.9c0-3.8,0-5.8,1.3-6.8c0.3-0.2,0.9-0.9,1.5-1.4c1.9-2,4.4-4.6,6.8-4.2c3.4,0.5,4.9,5.4,4.9,7.9
c0,0.5,0,1.1-0.1,1.8c-0.2,1.9-0.4,4.9,0.5,6.7c1.5,2.8,2.7,4.1,4.1,4.1c0,0,0,0,0,0c-0.2-0.7-0.6-1.7-0.9-2.5
c-1.5-3.7-2.3-6.2-1.4-7.9c0.4-0.6,1-1.1,1.8-1.2c2.9-0.5,4.5,1.8,5.3,3c0.1,0.2,0.3,0.4,0.4,0.6c0.3-0.1,0.5-0.3,0.8-0.9
c0.1-0.2,0.3-0.4,0.4-0.6c0.4-0.6-0.6-1.7-2-3c-1.5-1.5-3.7-3.7-1.9-5.9c1.2-1.4,3.2-1.9,5.1-2.3c2-0.5,3.9-0.9,4.6-2.3
c1.5-3.1,2.5-7.5,0.6-9.5c-0.5-0.6-0.5-1.4-0.1-2c1.1-1.3,0.9-2.1,0.4-4c-0.1-0.6-0.3-1.2-0.4-2c-0.1-0.4,0.1-0.9,0.3-1.2
c0.8-0.9,1.6-1,2.2-1c2,0,3.8,2.2,5.5,4.3c0.2,0.2,0.3,0.4,0.5,0.6c0-0.2,0-0.3,0-0.4c0.1-2.3,0.3-5.8,3.2-7.6
c0.3-0.6,0.2-0.9,0-1.5c-0.2-0.9-0.5-2.1-0.3-4.5c-0.2-1.6-0.8-2.1-1.5-2.7c-0.9-0.8-2.2-1.8-1.5-4.5c0-0.1,0.1-0.3,0.1-0.4
c2.1-3.7,3.7-5.2,5.5-5.1c2.1,0.1,3.1,2.5,3.9,4.6c0.3,0.8,0.8,2.1,1.2,2.5c0.8-0.8,0.9-5.4,0.2-9.8c-0.1-0.8,0.4-1.6,1.2-1.7
c0.8-0.1,1.6,0.4,1.7,1.2c0.4,2.3,1.4,9.8-1,12.3c-0.6,0.7-1.5,1-2.4,1c-2-0.1-2.9-2.3-3.7-4.4c-0.3-0.8-0.9-2.3-1.3-2.7
c-0.3,0.1-1.1,0.7-2.6,3.4c-0.1,0.7-0.1,0.7,0.6,1.3c0.9,0.8,2.3,1.9,2.6,4.8c0,0.1,0,0.2,0,0.4c-0.2,1.9,0,2.8,0.2,3.6
c0.3,1.2,0.4,2.2-0.5,4c-0.1,0.3-0.4,0.5-0.6,0.6c-1.7,0.8-1.9,2.7-2,5.3C94,51.9,94,53.1,93.5,54c-0.3,0.6-0.8,1-1.5,1
c-1.3,0.1-2.3-1.1-3.8-2.9c-0.6-0.7-1.5-1.9-2.3-2.6c0.4,1.8,0.9,3.6-0.3,5.6c2.5,4,0,10-0.8,11.8c-1.3,2.7-4.3,3.4-6.7,3.9
c-1.4,0.3-2.8,0.6-3.4,1.2c0.2,0.4,1.1,1.4,1.7,2c1.6,1.6,4.1,4.1,2.4,6.8c-0.1,0.2-0.2,0.4-0.3,0.5c-0.6,1-1.4,2.3-3.7,2.4
c-1.3,0-2-1-2.6-1.9c-0.8-1.2-1.3-1.7-1.9-1.8c0,1.1,1.1,3.7,1.6,5c1.1,2.9,1.6,4.2,1.1,5.3c-0.2,0.5-0.6,0.8-1,1
c-5,1.8-7.8-3.5-8.7-5.3c-1.3-2.6-1.1-6-0.9-8.3c0-0.6,0.1-1.2,0.1-1.5c0-1.9-1.2-4.8-2.4-4.9c-0.9-0.2-3.3,2.4-4.2,3.3
c-0.6,0.7-1.2,1.2-1.7,1.6c-0.2,0.7-0.2,3-0.2,4.5c0,4.2,0,7.5-2.4,7.9c-3.3,0.5-5.1-1.3-6.4-2.6c-0.4-0.4-0.9-0.9-1.2-1
c-1.9-0.9-2.3-4.2-2.4-10.4c0-0.6,0-1,0-1.3c-0.3-5-1.3-5.7-1.3-5.7c-0.5-0.1-1.2-0.2-2-0.4c-1.9-0.3-3.6-0.6-4.7-1.5
c-0.6-0.5-1-1.5-1.7-3.1c-0.5-1.1-1.4-3.2-2.1-3.8c-0.8,1.1-1.5,5.1-1.1,6.4l0,0c1.5,0.6,3.7,1.5,5.1,4.3c0.4,0.9,0.8,2.6-1.8,4.7
c-2.2,1.8-7.1,4.1-9.2,2.4c-1.1-0.9-1.4-3.1-2-8.6c-0.2-2.4-0.6-6.4-1.2-7.6c-0.4,0.1-0.5,0.2-0.6,0.3c-0.9,1-0.7,4.3-0.5,6.8
c0.2,2.1,0.3,4.1,0,5.6c-0.5,2.4-0.4,4.1,0.3,5c0.7,0.9,2.4,1,4,1.1c1.3,0.1,2.7,0.2,3.8,0.7c1.3,0.7,2,1.6,2.1,2.7
c0.2,2.1-2,3.7-4.1,5.3c-0.8,0.6-1.7,1.2-2.1,1.7c-0.7,1.3,1.1,9.4,3.3,16.1c0.3,0.8-0.2,1.6-1,1.9
C24.7,107.7,24.6,107.7,24.4,107.7z M51.1,85.7C51.1,85.7,51.1,85.7,51.1,85.7C51.1,85.7,51.1,85.7,51.1,85.7z M74.6,80.8
C74.6,80.8,74.6,80.8,74.6,80.8C74.6,80.8,74.6,80.8,74.6,80.8z M30,58.6L30,58.6z M90.8,52.6C90.8,52.6,90.8,52.6,90.8,52.6
C90.8,52.6,90.8,52.6,90.8,52.6z M102,31.3L102,31.3L102,31.3z"/>
<path fill="#F8485E" d="M20.4,55.8c-0.1,0-0.3,0-0.4,0c-2.8-0.2-3.6-2.5-4.1-3.7c-0.1-0.2-0.1-0.4-0.2-0.5c-2.8-0.1-4.3-1.1-4.4-2.9
c-0.1-0.8,0.2-1.4,0.4-2c0.5-1.2,0.6-1.6-0.8-2.4c-2-1.1-5.2,1.7-6.1,2.8c-0.5,0.6-1.5,0.7-2.1,0.2C2.1,46.6,2,45.7,2.5,45
c0.2-0.2,5.2-6,9.8-3.4c3.7,2.1,2.7,4.8,2.2,6.1c-0.1,0.2-0.2,0.5-0.2,0.7c0.2,0.1,0.6,0.2,1.6,0.2c0.3,0,0.5,0,0.6,0
c1.4,0.2,1.9,1.5,2.2,2.4c0.5,1.3,0.8,1.7,1.5,1.8c1,0.1,1.9-0.6,2.3-1.2c0.5-0.6,0.5-1.1,0.4-1.2c-0.2-0.3-0.4-0.3-0.7-0.4
c-0.5-0.1-2.2-0.4-2-2.7c0.1-0.9,0.3-2,0.5-2.9c-1.2,0.1-2.6-0.1-3.6-0.8c-0.7-0.5-1.1-1.3-1.2-2.2c0-0.4,0.1-0.8,0.3-1.1
c0.6-0.7,1.1-1.4,1.4-2c-0.6,0-1.2,0-1.9-0.1c-2.6,0-4.3-0.1-5.3-0.8c-1.8-1.2-3.9-4.3-2-7.3c1.5-2.4,4.4-1.3,6-0.7c0,0,0.1,0,0.1,0
c0.4-1.2,1.3-2.5,2.4-3.4c1.7-1.5,3.8-2.2,6-1.9c1.2,0.2,2.1,1.2,2.9,2.2c0.4,0.4,1.2,1.4,1.5,1.4c0.5-0.1,0.9-0.3,1.5-0.6
c1.3-0.6,2.8-1.4,5.5-1.2c0.2,0,0.3,0,0.3,0c0.4-0.4,0-2.3-0.5-3.3c-0.3,0.1-0.6,0.3-0.8,0.4c-1.8,1-4.6,2.4-6.8,1
c-0.3-0.2-0.6-0.4-0.8-0.5c-1.5-0.8-1.6-1.5-1.8-3.3c-0.1-0.7,0.2-1.4,0.8-2.1c2.1-2.3,9.1-4.7,11.4-4.7c0.4,0,0.9,0,1.4,0
c3.3-0.1,7.4-0.3,8.4,2.2c0.6,1.5-0.5,3-1.6,4.4c-0.5,0.7-1.5,2-1.5,2.5l0,0c0,0,0.1,0.1,0.3,0.2c0.8,0.5,1.2,0.4,2.6-1.3
c0.8-1,1.7-2.1,3.1-2.3c0.7-0.1,1.5-0.3,2.4-0.6c1.9-0.5,3.8-1,5.3-0.7c0.9,0.2,1.2-0.1,1.9-1c0.6-0.7,1.4-1.6,2.8-1.7
c1.4-0.1,2.5,0.4,3.4,0.7c0.5,0.2,1,0.4,1.6,0.5c0.4-0.1,1.9-1,2.9-1.6c2.2-1.4,4.5-2.9,6.4-2.6c2.3,0.3,3.7,1.5,4.8,2.4
c0.4,0.4,0.8,0.7,1.2,0.9c1.3,0.8,5.3,2.2,7,2.4c-0.2-0.4-0.6-0.9-0.9-1.3c-1.4-1.9-3.6-4.8-2.6-8.8c0.2-0.8,1-1.3,1.8-1.1
c0.8,0.2,1.3,1,1.1,1.8c-0.6,2.7,0.8,4.6,2.1,6.3c1.1,1.5,2.6,3.5,0.9,5.3c-2.3,2.5-10.9-2-11-2c-0.6-0.3-1.1-0.8-1.5-1.2
c-1-0.8-1.8-1.6-3.2-1.7c-0.8-0.1-3,1.3-4.4,2.2c-2,1.3-3.5,2.3-4.9,2.1c-1-0.1-1.7-0.5-2.3-0.8c-0.7-0.3-1.2-0.5-1.9-0.5
c-0.1,0-0.5,0.5-0.8,0.7c-0.8,0.9-2.2,2.5-4.8,1.9c-0.8-0.2-2.5,0.3-3.9,0.7c-0.9,0.3-1.8,0.5-2.7,0.6c-0.3,0-0.9,0.8-1.2,1.2
c-1.1,1.3-3.2,3.8-6.4,2c-1.2-0.7-1.6-1.6-1.7-2.2c-0.4-1.8,0.9-3.4,2-4.9c0.4-0.5,0.9-1.1,1.1-1.5c-1-0.5-4.1-0.4-5.3-0.3
c-0.6,0-1.1,0-1.5,0c-1.9,0-8.2,2.4-9.1,3.7c0,0.2,0.1,0.5,0.1,0.6c0.1,0,0.1,0.1,0.2,0.1c0.2,0.1,0.6,0.3,1,0.6
c0.8,0.5,2.6-0.5,3.8-1.1c1.3-0.7,2.3-1.2,3.4-0.8c1.7,0.7,2.8,4.7,2.3,6.8c-0.4,1.7-1.7,2.7-3.5,2.6c-1.9-0.1-3,0.4-4.1,0.9
c-0.7,0.3-1.4,0.7-2.3,0.8c-2,0.4-3.3-1.2-4.3-2.4c-0.3-0.4-0.8-1-1.1-1.1c-1.6-0.2-2.8,0.6-3.6,1.2c-0.9,0.8-1.6,1.9-1.7,2.9
c-0.1,0.6-0.4,1-0.8,1.3c-0.9,0.5-1.8,0.2-3-0.2c-0.6-0.2-2-0.8-2.4-0.6c-1,1.7,1.1,3.3,1.2,3.3c0.4,0.2,2.4,0.2,3.6,0.3
c1.5,0,2.7,0,3.6,0.3c0.7,0.2,1.3,0.7,1.5,1.4c0.3,1.1-0.2,2.6-1.6,4.5c0.7,0.1,2,0.1,3.1-0.2c0.5-0.1,1.1,0,1.4,0.4
c0.4,0.4,0.5,0.9,0.4,1.4c-0.2,0.7-0.7,2.8-0.9,4.1c0.6,0.1,1.3,0.5,2,1.3c0.9,1.1,0.9,2.6,0.1,4.2C24.6,54.2,22.7,55.8,20.4,55.8z
 M34.7,22.3L34.7,22.3L34.7,22.3z M34,22.1L34,22.1C34,22.1,34,22.1,34,22.1z"/>
<path fill="#F8485E" d="M86.2,113.9c-0.5,0-1-0.3-1.3-0.8c-0.6-1.1-1.9-1.8-3-2.5c-1.4-0.8-3.7-2.2-2.5-4.6c0.7-1.3,2.3-2.4,4.2-3.7
c1.5-1,3.6-2.5,3.9-3.4c0.5-1.9,2.4-3,4.5-4.3c1.7-1.1,3.7-2.3,5-3.9c0.1-0.1,0.1-0.1,0.2-0.2c0.7-0.6,1.3-0.7,1.8-0.6
c1.1,0.1,1.7,0.9,2.1,1.5c0.1,0.1,0.2,0.3,0.3,0.4c0.3-0.4,0.3-1.3,0.4-2c0.1-1.5,0.3-3.7,2.5-4.1c1.9-0.3,2.8,1.3,3.4,2.4
c0.8,1.5,0.9,1.5,1.5,1.2c0.8-0.4,1.6,0,2,0.7s0,1.6-0.7,2c-3.2,1.5-4.7-1.3-5.4-2.4c-0.1-0.1-0.2-0.3-0.2-0.4
c0,0.3-0.1,0.6-0.1,0.8c-0.1,1.4-0.3,3.4-1.8,4.4c-2.2,1.5-3.7-0.5-4.2-1.2c-1.6,1.6-3.4,2.8-5.1,3.9c-1.4,0.9-3,1.9-3.2,2.6
c-0.5,1.9-2.7,3.4-5.1,5c-1.1,0.8-2.6,1.8-3.1,2.4c0.3,0.2,0.8,0.5,1.2,0.8c1.3,0.8,3,1.8,4,3.6c0.4,0.7,0.2,1.6-0.5,2
C86.7,113.8,86.5,113.9,86.2,113.9z"/>
<path fill="#F8485E" d="M82.5,94.3c-0.1,0-0.1,0-0.2,0c-1.3,0-3.9-0.7-5-2.9c-0.7-1.4-0.5-3.2,0.4-4.7l0,0c0.7-1.2,4-4.5,6.4-4.6
c0.6-0.1,1.2,0.2,1.6,0.6c1,1,0.9,2.8,0.8,4.8c0,0.8-0.1,1.7,0,2.2c0.2,1.5,0,2.5-0.7,3.4C85.1,93.9,84,94.3,82.5,94.3z M80.3,88.3
c-0.4,0.7-0.4,1.4-0.2,1.8c0.3,0.7,1.6,1.2,2.3,1.2c0.8,0,1.1-0.1,1.2-0.2c0,0,0.1-0.2,0-0.9c-0.1-0.8-0.1-1.7,0-2.8
c0-0.6,0.1-1.5,0-2.1C82.5,86,80.8,87.5,80.3,88.3L80.3,88.3z"/>
<path fill="#F8485E" d="M76.4,102.6c-1.5,0-3-0.3-4.3-0.8c-2.9-1.1-4.6-3.1-4.6-5.2c0-0.6,0.3-1.2,0.8-1.6c1.7-1.2,6.8-0.8,7.7-0.5
c0.1,0,5,1.7,5.7,4.2c0.2,0.8,0,1.6-0.6,2.2C80,102.1,78.3,102.6,76.4,102.6z M70.8,97.2c0.4,0.6,1.3,1.3,2.5,1.7
c2,0.8,4.3,0.8,5.4,0.1c-0.7-0.6-2.5-1.5-3.4-1.8C74.5,97.1,72,97.1,70.8,97.2z M79,98.8C79,98.8,79,98.8,79,98.8
C79,98.8,79,98.8,79,98.8z M69,96.5L69,96.5L69,96.5z"/>
<path fill="#F8485E" d="M96.6,88.2c-0.1,0-0.1,0-0.2,0c-0.2,0-0.5,0-0.8,0c-2.3-0.1-5.6-0.3-6.5-2.4c-0.3-0.6-0.3-1.2,0-1.8
c0.6-1.4,2.4-2.1,4.7-3c0.5-0.2,0.9-0.4,1.2-0.5c0,0,0,0,0,0l0.7,1.3l-0.6-1.4c1.2-0.6,3.6-1.8,5.6-1c1,0.4,1.7,1.1,2.2,2.2
c0.3,0.6,0.3,1.6-0.6,3C101,86.2,98.5,88.2,96.6,88.2z M92.4,84.8c0.9,0.2,2.7,0.3,3.3,0.4c0.3,0,0.6,0,0.8,0c0.8,0,2.9-1.7,3.3-2.6
c-0.1-0.2-0.3-0.3-0.3-0.3c-0.9-0.3-2.7,0.6-3.3,0.9l-0.7-1.3l0.7,1.3c-0.4,0.2-0.9,0.4-1.5,0.6C94.2,84,93.1,84.4,92.4,84.8z"/>
</svg>
