<svg width="120px" height="120px" viewBox="0 0 120 120">
<path fill="#F8485E" d="M42.7,74.4c-2.2-3.2-4.7-6.8-7.3-10.5l5-7.3c0.2-0.3,0.4-0.7,0.6-1.2l0.1-0.3L38.9,52l-0.3,1.1
c-0.2,1.1-0.5,1.6-0.7,1.8l-4.4,6.4l-4.8-6.9c3.5-5.1,6.2-8.9,7.4-10.7l0.1-0.2l-0.9-5L34.7,40c-2.1-1.8-4.9-2.8-7.9-2.8
c-3,0-5.8,1-7.9,2.8c-0.3-0.8-0.4-1.7-0.4-2.7c0-5.1,4.3-7.5,8.3-7.5c2.9,0,6.8,1.3,7.9,5.1l0.5,1.5l1.5-4.5l-0.1-0.2
c-2-3-5.7-4.9-9.7-4.9c-4.6,0-8.6,2.4-10.3,6c0,0.1-0.1,0.1-0.1,0.2c-6.5,13-4.9,21.2-3.1,23.8c1,1.4,4.2,6.1,5,7.3
c-3.6,5.2-7.4,10.6-10.2,14.6c-0.3,0.4-0.4,0.9-0.2,1.4l4.8,12.4c0.2,0.5,0.7,0.9,1.2,1c0.1,0,0.1,0,0.2,0c0.5,0,1-0.2,1.2-0.7
l11.4-16.4c2.8,4,5.1,7.3,7.1,10.2l0.4,0.6l1.9-2.7L35.9,84c-5.5-7.9-14-20.2-18-26l-2.2-3.2c-0.8-1.1-2.1-5.6,0.4-13.6
c0.2,0.5,0.5,1,0.8,1.5c0.9,1.3,17.1,24.6,23.6,33.9l0.4,0.6l1.9-2.6L42.7,74.4z M33.1,42.6c-1.3,1.9-3.5,5-6.3,9
c-2.9-4.1-5-7.2-6.3-9.1c1.5-1.5,3.8-2.4,6.3-2.4C29.3,40.3,31.6,41.1,33.1,42.6z M11,79.6c2.6-3.7,5.9-8.4,9.1-13l4.8,7l-10.4,15
L11,79.6z"/>
<path fill="#F8485E" d="M111.9,78.5L111.9,78.5c-2.8-4-6.5-9.2-10.2-14.6l5-7.3c1.7-2.5,3.3-10.7-3.1-23.8c0-0.1-0.1-0.1-0.1-0.1
c-1.7-3.7-5.8-6-10.4-6c-3.8,0-7.3,1.7-9.4,4.4l-0.2,0.2l1.3,4.1l0.5-1.2c1.4-3.3,5-4.5,7.7-4.5c4,0,8.3,2.3,8.3,7.5
c0,1.1-0.1,2-0.4,2.7c-2.1-1.8-4.9-2.8-7.9-2.8c-3.2,0-6.2,1.1-8.2,3.1l-0.1,0.1L84.1,44l0.1,0.2c4.1,5.9,20.3,29.2,24.7,35.4
l-3.5,9c-3.2-4.6-10.4-15-21.5-31.1l-1.8-2.6c-0.2-0.3-0.4-0.8-0.6-1.4l-0.3-1L79,55.6l0.1,0.3c0.1,0.3,0.3,0.5,0.4,0.7
c1,1.5,4.3,6.2,5,7.3c-2.4,3.4-4.9,7-7.1,10.2l-0.2,0.3l1.9,2.6l0.4-0.6c2.1-3,4.5-6.5,6.9-9.8l4.8,7L84.1,84l1.9,2.7l7.2-10.4
c5.2,7.5,8.9,12.8,11.4,16.4c0.3,0.4,0.7,0.6,1.2,0.6c0.1,0,0.1,0,0.2,0c0.6-0.1,1-0.4,1.2-1l4.8-12.4
C112.3,79.5,112.2,78.9,111.9,78.5z M86.9,42.6c1.5-1.5,3.8-2.4,6.3-2.4c2.5,0,4.8,0.9,6.3,2.4c-1.3,1.9-3.5,5-6.3,9
C90.3,47.6,88.2,44.5,86.9,42.6z M95,54.3c4.3-6.1,7.3-10.4,8-11.5c0.3-0.4,0.6-0.9,0.8-1.5c2.5,8,1.2,12.5,0.5,13.6l-4.4,6.4
L95,54.3z"/>
<g>
<path fill="#F8485E" d="M74.5,67.3l-0.1-0.1l0.1-0.1L84,53.3c3.1-4.4,5.8-19-5.8-42.4c0-0.1-0.1-0.1-0.1-0.2l0,0
C75.1,4.3,68,0.2,60,0.2h0c-8,0-15.1,4.1-18,10.5c-0.1,0.1-0.1,0.1-0.1,0.2c-11.6,23.4-8.9,38-5.8,42.4c1.9,2.7,8.2,11.9,9.3,13.5
l0.1,0.2l0.1,0.1l-0.1,0.1c-6.7,9.6-13.7,19.7-18.9,27c-0.4,0.5-0.4,1.2-0.2,1.7l8.8,22.5c0.3,0.6,0.8,1.1,1.5,1.2
c0.1,0,0.1,0,0.2,0c0.6,0,1.2-0.3,1.5-0.8l21.3-30.7L60,88l0.2,0.3c9.7,14,16.7,24,21.4,30.7c0.3,0.5,0.9,0.8,1.5,0.8
c0.1,0,0.1,0,0.2,0c0.7-0.1,1.3-0.5,1.5-1.2L93.6,96c0.2-0.6,0.1-1.2-0.2-1.7C88.2,86.9,81.4,77.1,74.5,67.3z M79.1,23.7l0.2-0.8
l0.3,0.8c5.4,15.5,3.2,24.8,1.3,27.5l-8.6,12.4l-0.2,0.3L72,63.6c-3.3-4.7-6.5-9.4-9.6-13.8l-0.1-0.1l0.1-0.1
c7.9-11.3,13.4-19.3,14.8-21.4C78,26.9,78.7,25.4,79.1,23.7z M60.2,46.1L60,46.4l-0.2-0.3c-5.7-8.2-10-14.3-12.3-17.7l-0.1-0.2
l0.1-0.1c2.9-3.2,7.5-5,12.5-5c5,0,9.6,1.8,12.5,5l0.1,0.1l-0.1,0.2C70.2,31.8,65.8,38.1,60.2,46.1z M60,4c7.7,0,16,4.6,16,14.6
c0,2.5-0.4,4.5-1.1,6.2L74.7,25l-0.3-0.2c-3.6-3.4-8.9-5.4-14.5-5.4c-5.6,0-10.8,2-14.4,5.4L45.3,25l-0.1-0.3
C44.4,23.1,44,21,44,18.5C44,8.5,52.3,4,60,4z M57.6,84.8l-19.9,28.8l-0.3,0.4l-0.2-0.4l-7-17.8l0-0.1l0.1-0.1
c4.8-6.9,11.2-16,17.3-24.8l0.2-0.3l0.2,0.3c3,4.3,6.2,9,9.6,13.9l0.1,0.1L57.6,84.8z M89.8,95.7l-7,17.8l-0.2,0.4l-0.3-0.4
c-7.9-11.3-31.2-45-40-57.7c-1.8-2.6-2.9-4.3-3.3-4.7c-1.9-2.7-4-12,1.3-27.5l0.3-0.8l0.2,0.8c0.4,1.7,1.1,3.1,1.9,4.4
c1.8,2.7,38.7,55.6,46.9,67.4l0.1,0.1L89.8,95.7z"/>
</g>
</svg>
