<svg width="464.7px" height="820px" viewBox="0 0 464.7 820">
<path fill="#F8485E" d="M462.1,643.3c-35.5-50.6-82.2-117.4-129.1-184.7l64.7-93.2c21.2-30.6,40.3-130.9-39.5-291.5
c-0.3-0.6-0.7-1.1-1-1.6C334.8,24.6,283.3,0,232.2,0c-0.1,0-0.1,0-0.2,0c-51,0.1-102.5,24.8-124.7,72.5c-0.3,0.4-0.5,0.9-0.8,1.4
C26.7,234.4,45.8,334.7,67,365.4c14,20.2,63.3,91.5,64.6,93.4c-45.6,65.3-94,134.5-129,184.5c-2.8,3.9-3.4,9-1.6,13.5l60.3,154.1
c1.9,4.9,6.4,8.4,11.7,9c0.6,0.1,1.1,0.1,1.7,0.1c4.7,0,9.1-2.3,11.8-6.2L232.1,604c53.8,77.7,108.6,156.5,146.2,209.9
c2.7,3.9,7.1,6.1,11.8,6.1c0.6,0,1.2,0,1.7-0.1c5.3-0.6,9.7-4.1,11.7-9l60.3-154.1C465.5,652.3,464.9,647.2,462.1,643.3z M374,349
l-58.6,84.5c-22.5-32.2-44.8-64.2-65.6-94c54-77.6,91.7-132,101.4-146.3c6-8.8,10.4-19,13.3-30.5C401.8,269.7,385.8,331.9,374,349z
 M232.3,314.2c-36.7-52.7-67.2-96.7-84.1-121.1c19.5-21.2,50.1-33.6,83.9-33.6c0,0,0.1,0,0.1,0c33.9,0,64.5,12.4,84.1,33.6
C300.4,216.4,270.8,258.9,232.3,314.2z M232,28.8c0.1,0,0.1,0,0.2,0c51.9,0,107.7,30.6,107.8,97.7c0,16.6-2.6,30.6-7.7,41.8
c-25-23.8-60.9-37.6-100-37.6c0,0-0.1,0-0.1,0c-39,0-74.9,13.8-99.8,37.5c-5-11.1-7.6-25.1-7.7-41.8C124.7,59.4,180.3,28.8,232,28.8
z M78.3,775.2L30.6,653.5c33-47.1,76.6-109.5,118.5-169.5c20.4,29.5,42.7,61.8,65.5,94.8L78.3,775.2z M386.4,775.4
C321.3,682.6,104.7,369.2,90.7,349c-11.8-17.1-27.8-79.2,9.4-186.4c2.9,11.6,7.4,21.8,13.3,30.6c11.6,17,262.2,376.9,320.7,460.3
L386.4,775.4z"/>
</svg>
