<svg width="120px" height="120px" viewBox="0 0 120 120">
<path fill="#F8485E" d="M25.7,23.5L25.4,23c2.8-1.7,4.6-4.9,4.6-8.4c0-2.7-1-5.2-2.9-7.1C25.4,5.9,23.2,5,20.9,5
c-5,0-9.1,4.3-9.1,9.7c0,3.5,1.8,6.8,4.7,8.5l-0.3,0.3c-4.8,1.8-8.3,6.1-9.1,11.2c-0.1,0.6,0.3,1.2,0.9,1.4
c3.9,1.2,8.4,1.9,12.9,1.9s9-0.7,12.9-1.9c0.6-0.2,1-0.8,0.9-1.4C33.9,29.5,30.4,25.2,25.7,23.5z M20.9,7.5c3.6,0,6.6,3.2,6.6,7.2
c0,4-3,7.2-6.6,7.2s-6.6-3.2-6.6-7.2C14.3,10.7,17.2,7.5,20.9,7.5z M17.7,25.4l1.3-1.3c0,0,0,0,0,0c1.3,0.3,2.7,0.3,4-0.1l0.9,1.2
c0.2,0.2,0.4,0.4,0.6,0.4C28.2,27,31,30.1,32,34c-6.9,1.9-15.3,1.9-22.2,0c1-3.9,3.8-7,7.5-8.3C17.4,25.6,17.6,25.5,17.7,25.4z"/>
<path fill="#F8485E" d="M64.8,23.5L64.5,23c2.8-1.7,4.6-4.9,4.6-8.4c0-2.7-1-5.2-2.9-7.1C64.5,5.9,62.3,5,60,5c-5,0-9.1,4.3-9.1,9.7
c0,3.5,1.8,6.8,4.7,8.5l-0.3,0.3c-4.8,1.8-8.3,6.1-9.1,11.2c-0.1,0.6,0.3,1.2,0.9,1.4C51,37.3,55.5,38,60,38s9-0.7,12.9-1.9
c0.6-0.2,1-0.8,0.9-1.4C73,29.5,69.5,25.2,64.8,23.5z M60,7.5c3.6,0,6.6,3.2,6.6,7.2c0,4-3,7.2-6.6,7.2c-3.6,0-6.6-3.2-6.6-7.2
C53.4,10.7,56.4,7.5,60,7.5z M56.9,25.4l1.3-1.3c0,0,0,0,0,0c1.3,0.3,2.7,0.3,4-0.1l0.9,1.2c0.2,0.2,0.4,0.4,0.6,0.4
c3.7,1.3,6.5,4.4,7.5,8.3c-6.9,1.9-15.3,1.9-22.2,0c1-3.9,3.8-7,7.5-8.3C56.6,25.6,56.7,25.5,56.9,25.4z"/>
<path fill="#F8485E" d="M103.9,23.5l-0.3-0.4c2.8-1.7,4.6-4.9,4.6-8.4c0-2.7-1-5.2-2.9-7.1c-1.7-1.7-3.9-2.6-6.2-2.6
c-5,0-9.1,4.3-9.1,9.7c0,3.5,1.8,6.8,4.7,8.5l-0.3,0.3c-4.8,1.8-8.3,6.1-9.1,11.2c-0.1,0.6,0.3,1.2,0.9,1.4
c3.9,1.2,8.4,1.9,12.9,1.9s9-0.7,12.9-1.9c0.6-0.2,1-0.8,0.9-1.4C112.1,29.5,108.7,25.2,103.9,23.5z M99.1,21.8
c-3.6,0-6.6-3.2-6.6-7.2c0-4,3-7.2,6.6-7.2s6.6,3.2,6.6,7.2C105.7,18.6,102.8,21.8,99.1,21.8z M96,25.4l1.3-1.3c0,0,0,0,0,0
c1.3,0.3,2.7,0.3,4-0.1l0.9,1.2c0.2,0.2,0.4,0.4,0.6,0.4c3.7,1.3,6.5,4.4,7.5,8.3c-6.9,1.9-15.3,1.9-22.2,0c1-3.9,3.8-7,7.5-8.3
C95.7,25.6,95.8,25.5,96,25.4z"/>
<path fill="#F8485E" d="M25.7,62.1l-0.3-0.4c2.8-1.7,4.6-4.9,4.6-8.4c0-2.7-1-5.2-2.9-7.1c-1.7-1.7-3.9-2.6-6.2-2.6
c-5,0-9.1,4.3-9.1,9.7c0,3.5,1.8,6.8,4.7,8.5l-0.3,0.3c-4.8,1.8-8.3,6.1-9.1,11.2c-0.1,0.6,0.3,1.2,0.9,1.4
c3.9,1.2,8.4,1.9,12.9,1.9s9-0.7,12.9-1.9c0.6-0.2,1-0.8,0.9-1.4C33.9,68.2,30.4,63.9,25.7,62.1z M20.9,46.1c3.6,0,6.6,3.2,6.6,7.2
c0,4-3,7.2-6.6,7.2s-6.6-3.2-6.6-7.2C14.3,49.3,17.2,46.1,20.9,46.1z M17.7,64l1.3-1.2c0,0,0,0,0,0c1.3,0.3,2.7,0.3,4-0.1l0.9,1.2
c0.2,0.2,0.4,0.4,0.6,0.4c3.7,1.3,6.5,4.4,7.5,8.3c-6.9,1.9-15.3,1.9-22.2,0c1-3.9,3.8-7,7.5-8.3C17.4,64.3,17.6,64.2,17.7,64z"/>
<path fill="#F8485E" d="M64.8,62.1l-0.3-0.4c2.8-1.7,4.6-4.9,4.6-8.4c0-2.7-1-5.2-2.9-7.1c-1.7-1.7-3.9-2.6-6.2-2.6
c-5,0-9.1,4.3-9.1,9.7c0,3.5,1.8,6.8,4.7,8.5l-0.3,0.3c-4.8,1.8-8.3,6.1-9.1,11.2c-0.1,0.6,0.3,1.2,0.9,1.4
c3.9,1.2,8.4,1.9,12.9,1.9c4.5,0,9-0.7,12.9-1.9c0.6-0.2,1-0.8,0.9-1.4C73,68.2,69.5,63.9,64.8,62.1z M60,46.1
c3.6,0,6.6,3.2,6.6,7.2c0,4-3,7.2-6.6,7.2c-3.6,0-6.6-3.2-6.6-7.2C53.4,49.3,56.4,46.1,60,46.1z M56.9,64l1.3-1.2c0,0,0,0,0,0
c1.3,0.3,2.7,0.3,4-0.1l0.9,1.2c0.2,0.2,0.4,0.4,0.6,0.4c3.7,1.3,6.5,4.4,7.5,8.3c-6.9,1.9-15.3,1.9-22.2,0c1-3.9,3.8-7,7.5-8.3
C56.6,64.3,56.7,64.2,56.9,64z"/>
<path fill="#F8485E" d="M103.9,62.1l-0.3-0.4c2.8-1.7,4.6-4.9,4.6-8.4c0-2.7-1-5.2-2.9-7.1c-1.7-1.7-3.9-2.6-6.2-2.6
c-5,0-9.1,4.3-9.1,9.7c0,3.5,1.8,6.8,4.7,8.5l-0.3,0.3c-4.8,1.8-8.3,6.1-9.1,11.2c-0.1,0.6,0.3,1.2,0.9,1.4
c3.9,1.2,8.4,1.9,12.9,1.9c4.5,0,9-0.7,12.9-1.9c0.6-0.2,1-0.8,0.9-1.4C112.1,68.2,108.7,63.9,103.9,62.1z M99.1,60.5
c-3.6,0-6.6-3.2-6.6-7.2c0-4,3-7.2,6.6-7.2s6.6,3.2,6.6,7.2C105.7,57.2,102.8,60.5,99.1,60.5z M96,64l1.3-1.2c0,0,0,0,0,0
c1.3,0.3,2.7,0.3,4-0.1l0.9,1.2c0.2,0.2,0.4,0.4,0.6,0.4c3.7,1.3,6.5,4.4,7.5,8.3c-6.9,1.9-15.3,1.9-22.2,0c1-3.9,3.8-7,7.5-8.3
C95.7,64.3,95.8,64.2,96,64z"/>
<path fill="#F8485E" d="M25.7,100.7l-0.3-0.4c2.8-1.7,4.6-4.9,4.6-8.4c0-2.7-1-5.2-2.9-7.1c-1.7-1.7-3.9-2.6-6.2-2.6
c-5,0-9.1,4.3-9.1,9.7c0,3.5,1.8,6.8,4.7,8.5l-0.3,0.3c-4.8,1.8-8.3,6.1-9.1,11.2c-0.1,0.6,0.3,1.2,0.9,1.4
c3.9,1.2,8.4,1.9,12.9,1.9s9-0.7,12.9-1.9c0.6-0.2,1-0.8,0.9-1.4C33.9,106.8,30.4,102.5,25.7,100.7z M20.9,84.7
c3.6,0,6.6,3.2,6.6,7.2c0,4-3,7.2-6.6,7.2s-6.6-3.2-6.6-7.2C14.3,88,17.2,84.7,20.9,84.7z M17.7,102.7l1.3-1.2c0,0,0,0,0,0
c1.3,0.3,2.7,0.3,4-0.1l0.9,1.2c0.2,0.2,0.4,0.4,0.6,0.4c3.7,1.3,6.5,4.4,7.5,8.3c-6.9,1.9-15.3,1.9-22.2,0c1-3.9,3.8-7,7.5-8.3
C17.4,102.9,17.6,102.8,17.7,102.7z"/>
<path fill="#F8485E" d="M64.8,100.7l-0.3-0.4c2.8-1.7,4.6-4.9,4.6-8.4c0-2.7-1-5.2-2.9-7.1c-1.7-1.7-3.9-2.6-6.2-2.6
c-5,0-9.1,4.3-9.1,9.7c0,3.5,1.8,6.8,4.7,8.5l-0.3,0.3c-4.8,1.8-8.3,6.1-9.1,11.2c-0.1,0.6,0.3,1.2,0.9,1.4
c3.9,1.2,8.4,1.9,12.9,1.9c4.5,0,9-0.7,12.9-1.9c0.6-0.2,1-0.8,0.9-1.4C73,106.8,69.5,102.5,64.8,100.7z M60,84.7
c3.6,0,6.6,3.2,6.6,7.2c0,4-3,7.2-6.6,7.2c-3.6,0-6.6-3.2-6.6-7.2C53.4,88,56.4,84.7,60,84.7z M56.9,102.7l1.3-1.2c0,0,0,0,0,0
c1.3,0.3,2.7,0.3,4-0.1l0.9,1.2c0.2,0.2,0.4,0.4,0.6,0.4c3.7,1.3,6.5,4.4,7.5,8.3c-6.9,1.9-15.3,1.9-22.2,0c1-3.9,3.8-7,7.5-8.3
C56.6,102.9,56.7,102.8,56.9,102.7z"/>
<path fill="#F8485E" d="M103.9,100.7l-0.3-0.4c2.8-1.7,4.6-4.9,4.6-8.4c0-2.7-1-5.2-2.9-7.1c-1.7-1.7-3.9-2.6-6.2-2.6
c-5,0-9.1,4.3-9.1,9.7c0,3.5,1.8,6.8,4.7,8.5l-0.3,0.3c-4.8,1.8-8.3,6.1-9.1,11.2c-0.1,0.6,0.3,1.2,0.9,1.4
c3.9,1.2,8.4,1.9,12.9,1.9c4.5,0,9-0.7,12.9-1.9c0.6-0.2,1-0.8,0.9-1.4C112.1,106.8,108.7,102.5,103.9,100.7z M99.1,99.1
c-3.6,0-6.6-3.2-6.6-7.2c0-4,3-7.2,6.6-7.2s6.6,3.2,6.6,7.2C105.7,95.9,102.8,99.1,99.1,99.1z M96,102.7l1.3-1.2c0,0,0,0,0,0
c1.3,0.3,2.7,0.3,4-0.1l0.9,1.2c0.2,0.2,0.4,0.4,0.6,0.4c3.7,1.3,6.5,4.4,7.5,8.3c-6.9,1.9-15.3,1.9-22.2,0c1-3.9,3.8-7,7.5-8.3
C95.7,102.9,95.8,102.8,96,102.7z"/>
</svg>
